PathFileType	4	(X/Y/Z)	C:/Users/beibeiliu/ov580/test_trc/User2\sequence.3_training_dense_left.trc
DataRate	CameraRate	NumFrames	NumMarkers	Units	OrigDataRate	OrigDataStartFrame	OrigNumFrames
120	120	22	19	mm	120	258	343
Frame#	Time	ThumbCMC			ThumbMCP			ThumbIP			ThumbTip			IndexMCP			IndexPIP			IndexTip			MiddleMCP			MiddlePIP			MiddleTip			RingMCP			RingPIP			RingTip			PinkyMCP			PinkyPIP			PinkyTip			BackHand1			BackHand2			BackHand3	
		X0	Y0	Z0	X1	Y1	Z1	X2	Y2	Z2	X3	Y3	Z3	X4	Y4	Z4	X5	Y5	Z5	X6	Y6	Z6	X7	Y7	Z7	X8	Y8	Z8	X9	Y9	Z9	X10	Y10	Z10	X11	Y11	Z11	X12	Y12	Z12	X13	Y13	Z13	X14	Y14	Z14	X15	Y15	Z15	X16	Y16	Z16	X17	Y17	Z17	X18	Y18	Z18	
257	2.14167	-265.628	38.7258	100.911	-262.019	40.5548	60.0854	-254.279	27.6053	31.2481	-242.575	2.39317	17.0901	-292.013	-3.79873	34.9684	-266.855	9.91154	21.3112	-257.246	22.3652	50.751	-275.048	-18.6752	32.6017	-246.201	3.07055	23.9584	-247.986	14.3238	60.8177	-251.904	-28.5371	36.8635	-231.081	-4.83418	26.2644	-232.861	10.4473	59.5531	-231.143	-34.2544	45.4996	-218.677	-4.12093	40.409	-219.327	4.79701	71.6483	-257.212	-33.6138	97.4947	-247.28	-23.7583	132.975	-275.732	-6.01694	112.632	
258	2.15	-264.367	34.7605	99.8383	-255.543	37.4066	64.4533	-251.866	24.8978	25.8695	-242.729	-1.97887	16.0924	-290.458	-5.12552	36.6355	-266.557	6.15271	20.3562	-255.319	20.019	50.9712	-273.623	-24.5907	34.7329	-247.78	-0.238019	24.3881	-246.826	6.60212	64.5675	-252.68	-30.4996	36.2382	-232.538	-6.94814	29.7655	-231.682	4.14158	67.0559	-235.859	-37.7967	46.5744	-216.744	-9.50538	44.5743	-222.168	-2.17635	72.3275	-261.358	-36.7525	102.851	-255.652	-23.2847	133.548	-278.827	-4.22089	115.247	
259	2.15833	-263.882	33.98	96.5634	-253.357	33.6365	60.5135	-249.05	16.7903	27.0203	-240.57	-8.67603	14.3043	-289.787	-6.71064	36.7922	-266.501	6.96625	18.738	-253.954	19.5159	51.0849	-276.348	-25.3062	35.2291	-247.805	-9.13268	23.1497	-247.639	6.12816	64.631	-252.971	-36.0553	38.6631	-231.737	-16.8352	32.2813	-234.575	0.473238	67.9996	-240.763	-44.1132	54.3126	-217.163	-19.2265	48.4027	-227.406	-6.40328	77.6647	-267.357	-38.9932	106.686	-260.311	-23.5508	135.943	-286.434	-0.320877	115.103	
260	2.16667	-257.963	31.6172	96.3861	-246.529	29.8646	59.8886	-241.315	13.1567	28.7716	-236.326	-13.327	18.5833	-285.488	-6.2841	33.4245	-259.943	-2.30687	20.5558	-248.136	15.2534	52.0045	-276.9	-25.3495	36.1508	-245.249	-14.949	24.2017	-243.044	2.35924	64.0829	-258.873	-37.5797	43.0077	-231.84	-23.3058	34.4311	-231.216	-7.40327	68.3858	-241.408	-49.2512	52.7057	-219.725	-28.2415	50.3197	-227.933	-11.45	82.0884	-273.184	-37.4758	106.495	-266.298	-24.0272	137.125	-283.489	-0.159116	114.571	
261	2.175	-249.377	30.7222	98.2218	-236.243	23.5068	60.1553	-233.741	1.91687	29.0627	-234.152	-24.4283	20.5852	-280.869	-2.29595	30.6342	-250.004	-2.90015	20.3711	-241.61	6.47327	54.5422	-275.031	-27.4144	34.4345	-239.625	-24.7755	28.3584	-236.597	-8.52115	63.2943	-259.262	-44.5194	45.859	-226.719	-35.2387	41.1092	-229.089	-14.041	71.0489	-248.814	-55.4625	59.8231	-220.423	-38.9389	56.7141	-228.477	-20.3803	84.038	-279.941	-33.9552	102.32	-273.228	-23.749	135.566	-284.727	9.38346	111.482	
262	2.18333	-241.079	26.7757	97.0285	-229.492	13.2288	62.5491	-223.682	-3.29269	34.2648	-232.485	-35.7133	22.1185	-272.962	-7.68086	30.2477	-242.056	-9.82739	21.4674	-235.166	0.5875	56.8286	-272.28	-27.84	36.458	-236.976	-30.8142	28.8667	-234.254	-14.656	67.3825	-259.06	-48.1231	45.7663	-226.819	-43.1077	45.8742	-227.306	-21.5773	73.1731	-251.5	-62.391	60.7888	-220.06	-47.058	64.2628	-225.058	-28.243	86.6369	-283.987	-26.226	104.179	-276.111	-18.488	138.853	-278.891	8.8867	110.18	
263	2.19167	-232.587	24.6635	96.4812	-220.965	8.31434	60.4404	-219.006	-13.5318	32.5782	-229.449	-40.8466	26.7867	-266.379	-6.55845	28.724	-236.747	-17.9857	23.2042	-228.162	-4.1727	53.8721	-269.093	-29.8152	36.2109	-233.15	-38.5037	33.4383	-232.654	-17.4069	70.8482	-259.878	-47.7297	46.0548	-228.946	-52.098	47.9656	-227.093	-27.3766	76.4104	-255.52	-62.4493	64.6803	-223.479	-52.0027	67.1676	-228.708	-33.3556	92.9939	-284.092	-28.438	102.479	-276.205	-16.6465	137.218	-275.476	12.9581	104.02	
264	2.2	-229.943	17.556	99.3175	-214.627	3.52898	67.561	-215.151	-21.016	34.0753	-224.415	-46.142	28.4647	-262.644	-12.7633	30.8427	-234.95	-21.8591	21.4406	-223.79	-11.5534	55.0651	-264.71	-36.9759	35.0856	-230.99	-41.6271	34.7619	-228.137	-21.4734	69.1258	-259.471	-53.145	49.8308	-226.9	-53.3681	50.2698	-226.706	-31.9487	78.2813	-253.273	-67.6742	65.3053	-223.495	-60.0146	69.506	-228.957	-39.107	91.812	-282.113	-25.2856	101.525	-276.146	-16.3648	134.154	-272.781	11.7598	107.836	
265	2.20833	-226.906	16.2198	94.7288	-212.307	-0.889696	68.9229	-208.795	-21.3439	38.0653	-222.136	-48.7159	31.7919	-259.07	-12.5787	33.7902	-228.289	-26.6566	26.745	-221.793	-14.986	56.9489	-262.503	-34.4798	37.0806	-230.472	-48.362	36.4912	-226.239	-25.8274	71.729	-254.801	-54.0367	47.9003	-224.903	-59.3077	55.0722	-224.963	-36.272	80.6763	-254.111	-68.3611	67.7864	-221.372	-59.4949	74.5993	-230.57	-39.6886	97.0164	-282.932	-25.9009	103.761	-277.59	-15.4279	133.342	-269.703	13.5768	105.179	
266	2.21667	-224.876	16.5746	95.1734	-211.687	-1.4491	67.7735	-207.199	-21.9206	39.44	-219.947	-49.0663	32.5183	-256.175	-13.5183	33.0442	-226.949	-26.592	23.9554	-217.986	-13.09	56.3743	-260.287	-37.7593	37.7128	-225.676	-47.2991	37.7527	-224.444	-23.2959	73.94	-253.631	-53.6977	48.8941	-222.807	-58.5566	54.695	-225.745	-33.9963	86.5469	-249.522	-67.5215	66.3902	-217.984	-60.548	76.2375	-228.648	-37.9836	96.7981	-281.905	-24.8408	99.7497	-274.495	-16.8117	135.321	-267.02	13.1016	105.836	
267	2.225	-224.533	19.9955	95.922	-209.185	3.71953	64.7678	-205.47	-18.914	41.3959	-216.48	-47.0901	29.5098	-255.311	-10.3136	31.5442	-223.162	-23.1945	26.6721	-219.788	-8.60382	60.6414	-255.693	-35.5622	34.2122	-223.857	-43.4376	36.0656	-220.625	-19.8964	70.9937	-251.67	-54.4212	51.0908	-217.854	-53.0986	55.4418	-221.682	-32.6133	83.3908	-247.472	-63.6449	66.5359	-216.038	-56.6869	74.0276	-225.211	-36.2211	97.3162	-280.285	-28.1721	102.359	-272.105	-15.8532	136.772	-266.536	12.1923	106.543	
268	2.23333	-224.44	25.8576	96.6846	-210.411	7.36057	66.8854	-204.866	-14.32	35.2239	-212.093	-40.5336	30.1655	-251.082	-6.52732	26.9147	-223.958	-18.6918	22.4547	-217.781	-3.25756	59.7162	-254.313	-32.5665	34.8525	-218.977	-38.7259	39.0507	-218.349	-18.2675	69.5588	-246.79	-51.608	49.8785	-216.486	-47.989	53.3227	-220.279	-28.2829	80.479	-242.813	-64.6141	67.0746	-213.233	-51.3821	72.7691	-227.136	-31.4457	97.0931	-278.218	-25.0921	101.942	-270.674	-11.1606	136.22	-269.056	12.7724	103.553	
269	2.24167	-223.336	34.9774	97.2839	-208.094	16.6255	63.4032	-203.626	-5.7867	38.2831	-213.216	-36.9045	28.6108	-252.616	-0.502206	30.8806	-223.178	-13.7702	24.0829	-215.414	3.50128	56.0357	-254.824	-26.6174	38.1597	-220.07	-33.3237	35.5237	-218.283	-12.4069	70.7185	-243.226	-42.0786	46.3514	-212.37	-39.1752	54.9458	-222.122	-20.2604	85.9464	-242.541	-56.4069	67.815	-210.716	-45.2747	73.4385	-220.918	-27.0892	96.6031	-274.079	-19.2076	102.43	-271.162	-3.50928	133.895	-265.297	22.8054	105.88	
270	2.25	-225.32	39.9514	101.022	-207.518	26.3907	65.3971	-202.106	3.70634	38.7266	-208.898	-23.7682	30.6795	-251.874	8.53635	31.3185	-222.41	-4.43918	27.3028	-214.083	11.5676	58.7698	-250.486	-14.7521	35.1577	-217.404	-22.0682	37.6114	-220.234	1.27376	74.1169	-242.77	-32.0216	48.9373	-212.023	-33.8972	55.3495	-221.206	-7.82957	85.9896	-241.617	-45.9162	69.1266	-210.744	-35.4929	71.0919	-220.134	-15.2762	100.777	-273.669	-10.5017	103.321	-268.095	2.29805	136.041	-267.491	29.6834	107.984	
271	2.25833	-223.334	52.8248	104.987	-205.168	39.338	70.2156	-199.364	17.7775	43.6051	-208.446	-10.0257	38.3752	-247.581	23.5986	33.6054	-217.564	14.5739	31.7977	-214.641	26.0836	67.6393	-247.728	-2.55647	39.1173	-214.578	-4.50097	39.7641	-215.123	12.5125	76.3601	-241.725	-17.7492	53.7746	-209.651	-15.3767	57.9495	-217.051	1.04275	89.4926	-237.962	-30.9908	69.9133	-205.838	-22.061	78.7002	-220.441	-4.64353	103.754	-272.812	-1.28671	104.791	-268.007	13.2988	139.91	-263.904	39.2847	111.053	
272	2.26667	-218.889	65.8738	115.133	-203.245	52.575	83.3409	-198.719	30.1403	48.8867	-202.58	7.41773	41.5445	-246.755	36.353	44.5285	-217.185	29.8643	36.4988	-210.855	37.1058	71.8175	-245.244	13.0818	44.975	-210.523	8.51925	50.995	-213.275	26.5331	82.7495	-235.598	-3.86909	56.2351	-207.199	-2.08411	60.6027	-213.501	16.2404	93.9049	-236.163	-19.16	74.8782	-202.993	-9.95435	82.156	-212.219	4.13708	108.27	-269.686	11.16	114.561	-265.079	24.4121	147.622	-260.366	51.9713	120.861	
273	2.275	-217.8	75.5181	122.873	-199.326	64.5041	93.3002	-195.775	43.558	61.4738	-199.264	20.3509	49.5118	-243.555	55.1921	53.3915	-212.319	45.9533	44.9612	-206.666	54.319	80.4128	-242.283	28.6537	54.7126	-208.156	20.5781	54.9076	-209.484	38.6072	92.226	-231.361	5.84874	63.316	-202.589	11.0427	67.9266	-209.626	27.1968	104.387	-231.252	-5.6426	81.1189	-197.501	2.15587	90.9542	-206.695	19.4281	115.111	-266.121	21.6036	121.671	-261.133	31.0087	155.372	-258.424	58.0327	129.842	
274	2.28333	-213.925	81.7574	136.326	-193.916	76.4717	102.838	-188.265	57.7575	68.9058	-192.837	32.0478	56.3521	-237.744	60.7495	64.3667	-208.093	54.2206	56.7508	-203.772	61.4188	93.7001	-237.213	39.1926	63.1459	-201.014	37.2095	64.4526	-203.777	48.33	102.233	-225.895	16.0669	73.6496	-195.96	19.1819	79.5841	-201.841	34.5465	113.318	-222.014	1.54728	88.8032	-192.281	11.8614	100.079	-202.551	28.1629	128.267	-259.526	31.6297	127.831	-257.069	37.556	160.273	-254.998	67.6274	142.432	
275	2.29167	-209.434	91.0372	146.883	-189.871	83.1739	114.86	-184.051	65.7606	81.2435	-191.267	37.3577	67.2347	-232.369	72.4043	73.8445	-199.032	64.4652	70.3593	-197.664	69.2774	105.655	-229.73	45.8671	73.3195	-194.94	45.567	77.4405	-202.747	51.8444	115.886	-222.635	27.4174	84.2704	-190.051	27.5257	91.1988	-198.468	44.2286	125.935	-218.601	12.263	99.0586	-188.145	22.3035	109.289	-200.46	35.635	138.114	-255.243	34.2492	138.079	-255.561	40.1237	171.303	-250.698	74.4874	149.701	
276	2.3	-207.21	91.7829	161.42	-187.243	86.8161	126.684	-180.418	70.6826	97.2487	-186.496	45.3262	81.1313	-225.964	76.9779	82.454	-198.199	68.5318	77.4366	-193.051	72.7236	113.493	-225.977	51.4794	82.9725	-191.777	48.9373	87.4487	-198.41	59.8314	127.397	-217.397	29.0278	95.2113	-186.626	30.6882	101.098	-191.998	47.9037	133.68	-210.97	15.5769	107.816	-182.78	24.3908	120.162	-195.232	40.0642	149.222	-253.781	40.93	147.797	-251.58	44.9766	180.922	-248.968	79.2599	161.913	
277	2.30833	-202.686	96.7194	172.271	-185.451	88.1954	138.535	-177.459	72.5217	106.96	-182.333	48.6695	91.6506	-222.603	80.0944	92.6109	-192.653	73.4774	90.0259	-190.418	79.1936	126.494	-225.055	55.0559	94.9659	-190.704	50.2432	95.1493	-196.524	62.3722	137.37	-214.898	35.7684	102.77	-184.36	32.9399	110.459	-191.495	53.1149	143.553	-211.246	19.2025	118.668	-182.678	32.909	129.298	-191.389	43.5463	159.589	-250.544	41.7172	157.702	-248.837	49.1851	192.174	-245.018	79.7261	168.893	
278	2.31667	-202.022	99.2365	180.828	-181.808	92.8199	144.73	-175.602	76.2444	113.013	-182.045	49.4068	97.4722	-222.448	83.407	100.79	-192.401	74.4613	99.1525	-187.985	80.1619	134.265	-224.036	59.8652	102.037	-188.716	52.8325	104.973	-194.386	63.2924	143.95	-215.307	34.9068	113.016	-183.699	36.1938	121.044	-189.334	51.8247	152.668	-211.998	17.9623	128.302	-182.173	34.8677	138.305	-191.969	46.7816	163.555	-249.693	43.1166	166.365	-249.887	52.0999	201.944	-244.375	84.3075	177.305	
